<?xml version="1.0" encoding="UTF-8"?>
<svg width="508px" height="508px" viewBox="0 0 508 508" version="1.1" xmlns="http://www.w3.org/2000/svg" xmlns:xlink="http://www.w3.org/1999/xlink">
    <path fill="#000000" d="M30,0.5 C13.7075999,0.5 0.5,13.7075999 0.5,30 L0.5,478 C0.5,494.2924 13.7075999,507.5 30,507.5 L478,507.5 C494.2924,507.5 507.5,494.2924 507.5,478 L507.5,30 C507.5,13.7075999 494.2924,0.5 478,0.5 L30,0.5 Z M311.758069,232.21261 C307.139184,248.170716 301.504561,264.744936 295.557081,280.647907 L326.719669,325.516779 L327.89962,327.215708 C331.180094,331.937286 332.725199,337.533101 332.410219,343.164938 L326.725219,444.75093 C325.962795,458.378625 314.294798,468.808643 300.665073,468.046219 C287.799193,467.326492 277.646502,456.739059 277.338114,443.896677 L275.396749,353.003844 L243.819857,313.760921 L231.238422,355.2593 L230.599509,357.363013 C227.985277,365.989386 221.065414,372.642509 212.492323,375.142057 L122.250294,400.715065 C109.115146,404.436469 95.4500705,396.805516 91.7289574,383.670374 C88.230832,371.331201 94.8541448,358.333383 106.803897,353.796039 L179.03234,326.615081 L190.179197,277.017234 C190.408939,275.996257 194.479745,260.248186 201.155207,234.518292 C201.171152,234.456834 201.171152,234.456834 201.187097,234.395375 C203.596408,225.108997 206.177809,215.166972 208.759211,205.23005 C209.662701,201.752128 210.501656,198.523267 211.254565,195.626061 C211.674043,194.011947 211.674043,194.011947 211.953695,192.935975 C211.979918,192.835089 212.002775,192.747148 212.022791,192.670141 L190.594594,194.553834 L179.592636,245.281993 C177.472002,255.058301 167.826419,261.265098 158.049972,259.143629 C149.341346,257.253944 143.337998,249.316562 143.800666,240.5082 L147.480664,169.285233 C147.978549,159.636955 154.886733,151.602563 164.189711,149.562428 L167.533231,148.839008 L233.420398,142.916 C264.626696,140.939711 284.783602,150.046577 308.294447,174.64252 C309.360331,175.757665 310.464265,176.856463 311.602765,177.938229 C315.937102,182.056578 320.58282,185.762108 325.228407,188.995091 C326.854064,190.126427 328.36321,191.117651 329.716921,191.961399 C330.190113,192.256333 330.609876,192.511656 330.971345,192.726451 C331.187264,192.854756 331.335173,192.940707 331.418251,192.988062 L382.281251,223.185062 L382.281212,223.185039 C391.506741,228.661029 394.544918,240.577881 389.066948,249.801234 C383.93304,258.449426 372.968033,261.706506 363.927756,257.379339 L311.758069,232.21261 Z M301.888306,154.927097 C272.808502,144.782463 257.46363,112.990975 267.607905,83.9083007 C277.752193,54.8306309 309.54891,39.4822669 338.62868,49.6278977 C367.704296,59.7701086 383.050799,91.5678316 372.907092,120.644708 C362.761081,149.725569 330.969898,165.072003 301.888312,154.927099 Z"></path>
</svg>