<?xml version="1.0" encoding="UTF-8"?>
<svg width="23px" height="23px" viewBox="0 0 31 31" version="1.1" xmlns="http://www.w3.org/2000/svg" xmlns:xlink="http://www.w3.org/1999/xlink">
    <!-- Generator: Sketch 53.1 (72631) - https://sketchapp.com -->
    <title>logo</title>
    <desc>Created with Sketch.</desc>
    <g id="Page-1" stroke="none" stroke-width="1" fill="none" fill-rule="evenodd">
        <g id="logo" fill="#000000" fill-rule="nonzero">
            <path d="M2.24556213,0.5 C1.28151479,0.5 0.5,1.28151479 0.5,2.24556213 L0.5,28.7544379 C0.5,29.7184852 1.28151479,30.5 2.24556213,30.5 L28.7544379,30.5 C29.7184852,30.5 30.5,29.7184852 30.5,28.7544379 L30.5,2.24556213 C30.5,1.28151479 29.7184852,0.5 28.7544379,0.5 L2.24556213,0.5 Z M18.9176372,14.2108053 C18.6443304,15.155072 18.3109208,16.135795 17.9589989,17.0767992 L19.802939,19.7317621 L19.8727586,19.8322904 C20.0668695,20.1116737 20.1582958,20.442787 20.1396579,20.7760318 L19.8032674,26.7870373 C19.7581536,27.5934098 19.0677395,28.2105706 18.2612469,28.1654567 C17.4999522,28.1228693 16.8992013,27.496394 16.8809535,26.7364898 L16.7660798,21.3582156 L14.8976247,19.0361492 L14.1531611,21.4916746 L14.1153556,21.6161546 C13.9606673,22.1265909 13.5512079,22.5202668 13.0439244,22.6681691 L7.70415941,24.1813648 C6.92693172,24.4015662 6.11834737,23.9500305 5.89816316,23.1728032 C5.69117349,22.4426746 6.08308549,21.673573 6.79017142,21.4050911 L11.0640438,19.7967504 L11.7236211,16.8619665 C11.7372153,16.8015537 11.9780914,15.8697151 12.3730892,14.3472362 C12.3740327,14.3435996 12.3740327,14.3435996 12.3749762,14.339963 C12.5175389,13.7904732 12.6702846,13.2021877 12.8230302,12.6142041 C12.8764912,12.4084099 12.9261335,12.2173531 12.9706843,12.0459208 C12.9955055,11.9504111 12.9955055,11.9504111 13.012053,11.8867441 C13.0136046,11.8807745 13.0149571,11.8755709 13.0161415,11.8710143 L11.7482008,11.9824754 L11.0971974,14.9841416 C10.9717161,15.5626214 10.4009715,15.9298875 9.82248355,15.8043567 C9.30718024,15.6925411 8.95195254,15.2228735 8.97932935,14.7016686 L9.19708071,10.4872919 C9.22654136,9.91638787 9.63530964,9.44098006 10.1857817,9.32026201 L10.3836231,9.27745609 L14.2822721,8.92698225 C16.1287986,8.81004207 17.3215149,9.34890988 18.7126892,10.8042911 C18.7757592,10.870276 18.8410808,10.9352937 18.9084476,10.9993035 C19.1649173,11.2429928 19.4398118,11.4622549 19.7146986,11.6535557 C19.8108914,11.7204986 19.9001899,11.7791509 19.9802912,11.8290769 C20.0082907,11.8465286 20.0331288,11.8616364 20.0545175,11.8743462 C20.0672937,11.8819382 20.0760457,11.8870241 20.0809616,11.8898262 L23.0906066,13.6766309 L23.0906043,13.6766295 C23.6364936,14.0006526 23.8162673,14.7057918 23.4921271,15.2515523 C23.1883456,15.7632796 22.5395286,15.9560063 22.0046009,15.6999609 L18.9176372,14.2108053 Z M18.3336276,9.63769805 C16.6129291,9.03742385 15.7049485,7.15627071 16.3052015,5.43540241 C16.9054552,3.71483023 18.7869178,2.80664301 20.5076142,3.4069762 C22.2280649,4.00710702 23.136142,5.88862909 22.5359226,7.60915432 C21.9355669,9.32991533 20.0544318,10.2379883 18.3336279,9.63769817 L18.3336276,9.63769805 Z" id="Shape"></path>
        </g>
    </g>
</svg>