<?xml version="1.0" encoding="UTF-8"?>
<svg width="25px" height="25px" viewBox="0 0 25 25" version="1.1" xmlns="http://www.w3.org/2000/svg" xmlns:xlink="http://www.w3.org/1999/xlink">
    <!-- Generator: Sketch 53.1 (72631) - https://sketchapp.com -->
    <title>Artboard</title>
    <desc>Created with Sketch.</desc>
    <g id="Artboard" stroke="none" stroke-width="1" fill="none" fill-rule="evenodd">
        <g id="play-dark" transform="translate(1.500000, 1.500000)" fill="#128E50" fill-rule="nonzero">
            <g id="Group-2" transform="translate(0.750000, 0.750000)">
                <path d="M10.2083333,18.375 C14.7102083,18.375 18.375,14.7102083 18.375,10.2083333 C18.375,5.70645833 14.7102083,2.04166667 10.2083333,2.04166667 C5.70645833,2.04166667 2.04166667,5.70645833 2.04166667,10.2083333 C2.04166667,14.7102083 5.70645833,18.375 10.2083333,18.375 Z M8.16666667,5.61458333 L14.2916667,10.2083333 L8.16666667,14.8020833 L8.16666667,5.61458333 Z" id="Shape" opacity="0.3"></path>
                <path d="M10.2083333,20.4166667 C15.8433333,20.4166667 20.4166667,15.8433333 20.4166667,10.2083333 C20.4166667,4.57333333 15.8433333,0 10.2083333,0 C4.57333333,0 0,4.57333333 0,10.2083333 C0,15.8433333 4.57333333,20.4166667 10.2083333,20.4166667 Z M10.2083333,2.04166667 C14.7102083,2.04166667 18.375,5.70645833 18.375,10.2083333 C18.375,14.7102083 14.7102083,18.375 10.2083333,18.375 C5.70645833,18.375 2.04166667,14.7102083 2.04166667,10.2083333 C2.04166667,5.70645833 5.70645833,2.04166667 10.2083333,2.04166667 Z M8.16666667,5.61458333 L8.16666667,14.8020833 L14.2916667,10.2083333 L8.16666667,5.61458333 Z" id="Shape"></path>
            </g>
        </g>
    </g>
</svg>