<?xml version="1.0" encoding="UTF-8"?>
<svg width="26px" height="26px" viewBox="0 0 20 17" version="1.1" xmlns="http://www.w3.org/2000/svg" xmlns:xlink="http://www.w3.org/1999/xlink">
    <path fill="#A3A3A3" d="M14.5115635,2.49843652 C12.969975,0.95684803 10.8542777,0 8.50468418,0 C3.80549719,0 0.01,3.80612883 0.01,8.50531582 C0.01,13.2045028 3.80549719,17.0106316 8.50468418,17.0106316 C12.4702877,17.0106316 15.7767292,14.2995622 16.7229456,10.6316448 L14.5115635,10.6316448 C13.6397686,13.108818 11.2795435,14.8843027 8.50468418,14.8843027 C4.98560976,14.8843027 2.12569731,12.0243902 2.12569731,8.50531582 C2.12569731,4.9862414 4.98560976,2.12632896 8.50468418,2.12632896 C10.2695372,2.12632896 11.8430206,2.85991245 12.9912383,4.01876173 L9.56784866,7.44215134 L17.01,7.44215134 L17.01,0 L14.5115635,2.49843652 Z" id="Path"></path>
</svg>