<?xml version="1.0" encoding="UTF-8"?>
<svg width="25px" height="25px" viewBox="0 0 25 25" version="1.1" xmlns="http://www.w3.org/2000/svg" xmlns:xlink="http://www.w3.org/1999/xlink">
    <!-- Generator: Sketch 53.1 (72631) - https://sketchapp.com -->
    <title>Artboard</title>
    <desc>Created with Sketch.</desc>
    <g id="Artboard" stroke="none" stroke-width="1" fill="none" fill-rule="evenodd">
        <g id="restart-light" transform="translate(3.000000, 4.000000)" fill="#007239" fill-rule="nonzero">
            <g id="Group">
                <path d="M5.55,12.95 L16.65,12.95 L16.65,1.85 L5.55,1.85 L5.55,12.95 Z M9.25,3.2375 L14.8,7.4 L9.25,11.5625 L9.25,3.2375 Z" id="Shape" opacity="0.3"></path>
                <path d="M1.85,3.7 L0,3.7 L0,16.65 C0,17.6675 0.8325,18.5 1.85,18.5 L14.8,18.5 L14.8,16.65 L1.85,16.65 L1.85,3.7 Z M16.65,0 L5.55,0 C4.5325,0 3.7,0.8325 3.7,1.85 L3.7,12.95 C3.7,13.9675 4.5325,14.8 5.55,14.8 L16.65,14.8 C17.6675,14.8 18.5,13.9675 18.5,12.95 L18.5,1.85 C18.5,0.8325 17.6675,0 16.65,0 Z M16.65,12.95 L5.55,12.95 L5.55,1.85 L16.65,1.85 L16.65,12.95 Z M9.25,3.2375 L9.25,11.5625 L14.8,7.4 L9.25,3.2375 Z" id="Shape"></path>
            </g>
        </g>
    </g>
</svg>