<?xml version="1.0" encoding="UTF-8"?>
<svg width="25px" height="25px" viewBox="0 0 25 25" version="1.1" xmlns="http://www.w3.org/2000/svg" xmlns:xlink="http://www.w3.org/1999/xlink">
    <!-- Generator: Sketch 53.1 (72631) - https://sketchapp.com -->
    <title>Artboard</title>
    <desc>Created with Sketch.</desc>
    <g id="Artboard" stroke="none" stroke-width="1" fill="none" fill-rule="evenodd">
        <g id="task" transform="translate(2.000000, 3.000000)" fill="#A3A3A3" fill-rule="nonzero">
            <g id="Group-3" transform="translate(-0.000000, 0.000000)">
                <path d="M2.33333333,18.6666667 L18.6666667,18.6666667 L18.6666667,2.33333333 L2.33333333,2.33333333 L2.33333333,18.6666667 Z M5.25,10.5 C5.25,10.2666667 5.27333333,10.045 5.29666667,9.82333333 L3.815,8.66833333 C3.68666667,8.56333333 3.64,8.365 3.73333333,8.21333333 L5.13333333,5.79833333 C5.22666667,5.64666667 5.40166667,5.58833333 5.565,5.64666667 L7.30333333,6.34666667 C7.665,6.055 8.07333333,5.83333333 8.49333333,5.64666667 L8.75,3.79166667 C8.785,3.62833333 8.925,3.5 9.1,3.5 L11.9,3.5 C12.075,3.5 12.215,3.62833333 12.25,3.79166667 L12.5066667,5.64666667 C12.9383333,5.82166667 13.3233333,6.055 13.685,6.335 L15.4233333,5.635 C15.5866667,5.57666667 15.7616667,5.635 15.855,5.78666667 L17.255,8.20166667 C17.3483333,8.35333333 17.3016667,8.54 17.1733333,8.65666667 L15.6916667,9.81166667 C15.7266667,10.045 15.7383333,10.2666667 15.7383333,10.5 C15.7383333,10.7333333 15.715,10.955 15.6916667,11.1766667 L17.1733333,12.3316667 C17.3016667,12.4366667 17.3483333,12.635 17.255,12.7866667 L15.855,15.2016667 C15.7616667,15.3533333 15.5866667,15.4116667 15.4233333,15.3533333 L13.685,14.6533333 C13.3233333,14.9333333 12.9266667,15.1666667 12.5066667,15.3416667 L12.25,17.1966667 C12.215,17.3716667 12.075,17.5 11.9,17.5 L9.1,17.5 C8.925,17.5 8.785,17.3716667 8.75,17.2083333 L8.49333333,15.3533333 C8.06166667,15.1783333 7.67666667,14.945 7.315,14.665 L5.57666667,15.365 C5.41333333,15.4233333 5.23833333,15.365 5.145,15.2133333 L3.745,12.7983333 C3.65166667,12.6466667 3.69833333,12.46 3.82666667,12.3433333 L5.30833333,11.1883333 C5.27333333,10.955 5.25,10.7333333 5.25,10.5 L5.25,10.5 Z" id="Shape" opacity="0.3"></path>
                <path d="M3.745,12.7983333 L5.145,15.2133333 C5.23833333,15.365 5.41333333,15.4233333 5.57666667,15.365 L7.315,14.665 C7.67666667,14.945 8.06166667,15.1783333 8.49333333,15.3533333 L8.75,17.2083333 C8.785,17.3716667 8.925,17.5 9.1,17.5 L11.9,17.5 C12.075,17.5 12.215,17.3716667 12.25,17.1966667 L12.5066667,15.3416667 C12.9266667,15.1666667 13.3233333,14.9333333 13.685,14.6533333 L15.4233333,15.3533333 C15.5866667,15.4116667 15.7616667,15.3533333 15.855,15.2016667 L17.255,12.7866667 C17.3483333,12.635 17.3016667,12.4483333 17.1733333,12.3316667 L15.6916667,11.1766667 C15.7266667,10.955 15.7383333,10.7216667 15.7383333,10.5 C15.7383333,10.2666667 15.715,10.045 15.6916667,9.81166667 L17.1733333,8.65666667 C17.3016667,8.55166667 17.3483333,8.35333333 17.255,8.20166667 L15.855,5.78666667 C15.7616667,5.635 15.5866667,5.57666667 15.4233333,5.635 L13.685,6.335 C13.3233333,6.055 12.9383333,5.82166667 12.5066667,5.64666667 L12.25,3.79166667 C12.215,3.62833333 12.075,3.5 11.9,3.5 L9.1,3.5 C8.925,3.5 8.785,3.62833333 8.75,3.80333333 L8.49333333,5.65833333 C8.07333333,5.83333333 7.665,6.055 7.315,6.335 L5.57666667,5.635 C5.41333333,5.57666667 5.23833333,5.635 5.145,5.78666667 L3.745,8.20166667 C3.65166667,8.35333333 3.69833333,8.54 3.82666667,8.65666667 L5.30833333,9.81166667 C5.27333333,10.045 5.25,10.2666667 5.25,10.5 C5.25,10.7333333 5.27333333,10.955 5.29666667,11.1883333 L3.815,12.3433333 C3.68666667,12.46 3.65166667,12.6466667 3.745,12.7983333 Z M10.5,8.505 C11.5966667,8.505 12.495,9.40333333 12.495,10.5 C12.495,11.5966667 11.5966667,12.495 10.5,12.495 C9.40333333,12.495 8.505,11.5966667 8.505,10.5 C8.505,9.40333333 9.40333333,8.505 10.5,8.505 Z M18.6666667,0 L2.33333333,0 C1.03833333,0 0,1.05 0,2.33333333 L0,18.6666667 C0,19.95 1.03833333,21 2.33333333,21 L18.6666667,21 C19.9616667,21 21,19.95 21,18.6666667 L21,2.33333333 C21,1.05 19.9616667,0 18.6666667,0 Z M18.6666667,18.6666667 L2.33333333,18.6666667 L2.33333333,2.33333333 L18.6666667,2.33333333 L18.6666667,18.6666667 Z" id="Shape"></path>
            </g>
        </g>
    </g>
</svg>